<svg width="1964" height="1050" viewBox="0 0 1964 1050" fill="none" xmlns="http://www.w3.org/2000/svg">
<line x1="-0.00390625" y1="2.5" x2="1963" y2="2.5" stroke="#E9E9E9"/>
<line y1="132.5" x2="1963" y2="132.5" stroke="#E9E9E9"/>
<line y1="66.5" x2="1963" y2="66.5" stroke="#E9E9E9"/>
<line y1="586.5" x2="1963" y2="586.5" stroke="#E9E9E9"/>
<line x1="0.00390625" y1="716.5" x2="1963" y2="716.5" stroke="#E9E9E9"/>
<line x1="0.00390625" y1="650.5" x2="1963" y2="650.5" stroke="#E9E9E9"/>
<line y1="392.5" x2="1963" y2="392.5" stroke="#E9E9E9"/>
<line x1="0.00390625" y1="522.5" x2="1963" y2="522.5" stroke="#E9E9E9"/>
<line x1="0.00390625" y1="456.5" x2="1963" y2="456.5" stroke="#E9E9E9"/>
<line y1="198.5" x2="1963" y2="198.5" stroke="#E9E9E9"/>
<line x1="0.00390625" y1="328.5" x2="1963" y2="328.5" stroke="#E9E9E9"/>
<line x1="0.00390625" y1="262.5" x2="1963" y2="262.5" stroke="#E9E9E9"/>
<line y1="789.5" x2="1963" y2="789.5" stroke="#E9E9E9"/>
<line x1="0.00390625" y1="919.5" x2="1963" y2="919.5" stroke="#E9E9E9"/>
<line x1="0.00390625" y1="853.5" x2="1963" y2="853.5" stroke="#E9E9E9"/>
<line x1="0.00390625" y1="985.5" x2="1963" y2="985.5" stroke="#E9E9E9"/>
<line y1="1049.5" x2="1963" y2="1049.5" stroke="#E9E9E9"/>
<line y1="-0.5" x2="1046.25" y2="-0.5" transform="matrix(-0.000928369 1 -1 -0.000252033 1047.97 3.25781)" stroke="#E9E9E9"/>
<line y1="-0.5" x2="1046.25" y2="-0.5" transform="matrix(-0.000928369 1 -1 -0.000252033 917.971 3.22656)" stroke="#E9E9E9"/>
<line y1="-0.5" x2="1046.25" y2="-0.5" transform="matrix(-0.000928369 1 -1 -0.000252033 983.971 3.24414)" stroke="#E9E9E9"/>
<line y1="-0.5" x2="1046.25" y2="-0.5" transform="matrix(-0.000928369 1 -1 -0.000252033 463.971 3.11328)" stroke="#E9E9E9"/>
<line y1="-0.5" x2="1046.25" y2="-0.5" transform="matrix(-0.000928369 1 -1 -0.000252033 333.971 3.08203)" stroke="#E9E9E9"/>
<line y1="-0.5" x2="1046.25" y2="-0.5" transform="matrix(-0.000928369 1 -1 -0.000252033 399.971 3.09863)" stroke="#E9E9E9"/>
<line y1="-0.5" x2="1046.25" y2="-0.5" transform="matrix(-0.000928369 1 -1 -0.000252033 657.971 3.16211)" stroke="#E9E9E9"/>
<line y1="-0.5" x2="1046.25" y2="-0.5" transform="matrix(-0.000928369 1 -1 -0.000252033 527.971 3.13086)" stroke="#E9E9E9"/>
<line y1="-0.5" x2="1046.25" y2="-0.5" transform="matrix(-0.000928369 1 -1 -0.000252033 593.971 3.14746)" stroke="#E9E9E9"/>
<line y1="-0.5" x2="1046.25" y2="-0.5" transform="matrix(-0.000928369 1 -1 -0.000252033 851.971 3.21094)" stroke="#E9E9E9"/>
<line y1="-0.5" x2="1046.25" y2="-0.5" transform="matrix(-0.000928369 1 -1 -0.000252033 721.971 3.17969)" stroke="#E9E9E9"/>
<line y1="-0.5" x2="1046.25" y2="-0.5" transform="matrix(-0.000928369 1 -1 -0.000252033 787.971 3.19629)" stroke="#E9E9E9"/>
<line y1="-0.5" x2="1046.25" y2="-0.5" transform="matrix(-0.000928369 1 -1 -0.000252033 260.971 3.06152)" stroke="#E9E9E9"/>
<line y1="-0.5" x2="1046.25" y2="-0.5" transform="matrix(-0.000928369 1 -1 -0.000252033 130.971 3.03125)" stroke="#E9E9E9"/>
<line y1="-0.5" x2="1046.25" y2="-0.5" transform="matrix(-0.000928369 1 -1 -0.000252033 196.971 3.04688)" stroke="#E9E9E9"/>
<line y1="-0.5" x2="1046.25" y2="-0.5" transform="matrix(-0.000928369 1 -1 -0.000252033 64.9707 3.01465)" stroke="#E9E9E9"/>
<line y1="-0.5" x2="1046.25" y2="-0.5" transform="matrix(-0.000928369 1 -1 -0.000252033 0.970703 3)" stroke="#E9E9E9"/>
<line y1="-0.5" x2="1046.25" y2="-0.5" transform="matrix(-0.000928369 1 -1 -0.000252033 1574.97 0.113281)" stroke="#E9E9E9"/>
<line y1="-0.5" x2="1046.25" y2="-0.5" transform="matrix(-0.000928369 1 -1 -0.000252033 1444.97 0.0820312)" stroke="#E9E9E9"/>
<line y1="-0.5" x2="1046.25" y2="-0.5" transform="matrix(-0.000928369 1 -1 -0.000252033 1510.97 0.0986328)" stroke="#E9E9E9"/>
<line y1="-0.5" x2="1046.25" y2="-0.5" transform="matrix(-0.000928369 1 -1 -0.000252033 1768.97 0.162109)" stroke="#E9E9E9"/>
<line y1="-0.5" x2="1046.25" y2="-0.5" transform="matrix(-0.000928369 1 -1 -0.000252033 1638.97 0.130859)" stroke="#E9E9E9"/>
<line y1="-0.5" x2="1046.25" y2="-0.5" transform="matrix(-0.000928369 1 -1 -0.000252033 1704.97 0.147461)" stroke="#E9E9E9"/>
<line y1="-0.5" x2="1046.25" y2="-0.5" transform="matrix(-0.000928369 1 -1 -0.000252033 1962.97 0.210938)" stroke="#E9E9E9"/>
<line y1="-0.5" x2="1046.25" y2="-0.5" transform="matrix(-0.000928369 1 -1 -0.000252033 1832.97 0.179688)" stroke="#E9E9E9"/>
<line y1="-0.5" x2="1046.25" y2="-0.5" transform="matrix(-0.000928369 1 -1 -0.000252033 1898.97 0.196289)" stroke="#E9E9E9"/>
<line y1="-0.5" x2="1046.25" y2="-0.5" transform="matrix(-0.000928369 1 -1 -0.000252033 1371.97 0.0615234)" stroke="#E9E9E9"/>
<line y1="-0.5" x2="1046.25" y2="-0.5" transform="matrix(-0.000928369 1 -1 -0.000252033 1241.97 0.03125)" stroke="#E9E9E9"/>
<line y1="-0.5" x2="1046.25" y2="-0.5" transform="matrix(-0.000928369 1 -1 -0.000252033 1307.97 0.046875)" stroke="#E9E9E9"/>
<line y1="-0.5" x2="1046.25" y2="-0.5" transform="matrix(-0.000928369 1 -1 -0.000252033 1175.97 0.0146484)" stroke="#E9E9E9"/>
<line y1="-0.5" x2="1046.25" y2="-0.5" transform="matrix(-0.000928369 1 -1 -0.000252033 1111.97 0)" stroke="#E9E9E9"/>
</svg>
