<svg width="41" height="40" viewBox="0 0 41 40" fill="none" xmlns="http://www.w3.org/2000/svg">
<path d="M3.19727 0.125H37.0439C38.7414 0.125148 40.1162 1.49325 40.1162 3.17871V36.8213C40.1162 38.5068 38.7414 39.8749 37.0439 39.875H3.19727C1.49978 39.8749 0.125 38.5068 0.125 36.8213V3.17871C0.125 1.4932 1.49978 0.125073 3.19727 0.125Z" fill="black" stroke="#D1D1D1" stroke-width="0.25"/>
<path d="M10.5642 12.9204C10.7974 12.6886 10.9284 12.3742 10.9284 12.0464V10H18.6954V13.3636H12.2562C11.9264 13.3636 11.6101 13.4939 11.3769 13.7257C11.1437 13.9574 11.0127 14.2718 11.0127 14.5996V17.0946C11.0127 17.4224 11.1437 17.7367 11.3769 17.9685C11.6101 18.2003 11.9264 18.3305 12.2562 18.3305H18.6954V21.6854H12.2562C11.9264 21.6854 11.6101 21.8156 11.3769 22.0474C11.1437 22.2792 11.0127 22.5935 11.0127 22.9213V25.4163C11.0127 25.7441 11.1437 26.0584 11.3769 26.2902C11.6101 26.522 11.9264 26.6522 12.2562 26.6522H18.6954V30.0159H10.931V27.973C10.931 27.6452 10.8 27.3308 10.5668 27.099C10.3336 26.8672 10.0174 26.737 9.68759 26.737H7V13.2824H9.68493C10.0147 13.2824 10.331 13.1522 10.5642 12.9204Z" fill="#FFF200"/>
<path d="M32.239 21.7781H29.5506C29.2216 21.7781 28.906 21.9077 28.6729 22.1385C28.4398 22.3693 28.3083 22.6826 28.3071 23.0096V25.4127C28.3071 25.7405 28.4381 26.0549 28.6713 26.2867C28.9045 26.5185 29.2208 26.6487 29.5506 26.6487H32.2444V30.0124H28.2272V27.9695C28.2272 27.6417 28.0962 27.3273 27.863 27.0955C27.6298 26.8637 27.3135 26.7335 26.9838 26.7335H25.624C25.2942 26.7335 24.9779 26.8637 24.7447 27.0955C24.5116 27.3273 24.3806 27.6417 24.3806 27.9695V30.023H20.3643V26.6593H23.0536C23.3834 26.6593 23.6997 26.5291 23.9329 26.2973C24.1661 26.0655 24.2971 25.7511 24.2971 25.4233V23.0185C24.2971 22.6906 24.1661 22.3763 23.9329 22.1445C23.6997 21.9127 23.3834 21.7825 23.0536 21.7825H20.3643V18.4188H24.3806V20.4582C24.3806 20.786 24.5116 21.1004 24.7447 21.3322C24.9779 21.564 25.2942 21.6942 25.624 21.6942H26.9784C27.3082 21.6942 27.6245 21.564 27.8577 21.3322C28.0909 21.1004 28.2219 20.786 28.2219 20.4582V18.4188H32.239V21.7781Z" fill="#FFF200"/>
</svg>
